<?xml version="1.0" standalone="no"?>
<!DOCTYPE svg PUBLIC "-//W3C//DTD SVG 20010904//EN"
 "http://www.w3.org/TR/2001/REC-SVG-20010904/DTD/svg10.dtd">
<svg version="1.0" xmlns="http://www.w3.org/2000/svg"
 width="1000.000000pt" height="1000.000000pt" viewBox="0 0 1000.000000 1000.000000"
 preserveAspectRatio="xMidYMid meet">
<metadata>
Created by potrace 1.14, written by Peter Selinger 2001-2017
</metadata>
<g transform="translate(0.000000,1000.000000) scale(0.100000,-0.100000)"
fill="#000000" stroke="none">
<path d="M4458 9555 c-249 -68 -420 -330 -497 -758 -54 -297 -56 -341 -56
-1382 -1 -1011 -3 -1053 -46 -1268 -21 -105 -47 -183 -79 -234 -27 -45 -64
-44 -122 2 -82 66 -128 89 -177 89 -57 0 -102 -25 -137 -76 -52 -75 -16 -190
73 -234 53 -26 191 -31 273 -10 121 31 241 129 319 260 102 171 177 483 211
881 19 218 24 860 10 1405 -10 406 -10 559 -1 675 24 313 77 455 168 455 27 0
46 -11 97 -59 95 -89 158 -99 254 -44 46 26 82 84 82 133 0 67 -63 143 -139
169 -44 14 -173 13 -233 -4z"/>
<path d="M5500 9548 c-258 -81 -424 -370 -494 -858 -36 -253 -40 -354 -41
-1325 0 -854 -2 -973 -18 -1076 -20 -135 -58 -292 -82 -340 -45 -87 -76 -90
-170 -15 -104 83 -171 93 -243 39 -106 -80 -93 -213 27 -275 47 -24 64 -28
141 -28 154 0 253 43 361 157 181 192 276 548 310 1153 9 158 10 387 3 865
-11 799 -9 1046 11 1196 27 212 77 319 150 319 34 0 53 -12 123 -79 72 -69
163 -77 240 -21 118 85 80 254 -67 299 -60 17 -177 13 -251 -11z"/>
<path d="M6637 9559 c-236 -55 -408 -296 -493 -689 -67 -309 -76 -498 -73
-1540 3 -773 2 -879 -14 -999 -29 -223 -75 -387 -121 -434 -29 -28 -61 -20
-137 38 -116 88 -187 94 -262 22 -80 -75 -64 -189 35 -255 40 -26 47 -27 162
-27 119 0 122 1 196 36 130 63 208 148 286 313 90 191 143 442 176 846 9 114
11 331 8 815 -7 1098 -5 1276 14 1390 33 199 78 285 150 285 29 0 46 -10 99
-59 76 -71 127 -90 198 -71 56 15 128 85 131 126 5 96 -24 149 -103 188 -45
22 -65 26 -133 25 -45 -1 -98 -5 -119 -10z"/>
<path d="M2882 5248 c-7 -7 -12 -31 -12 -54 l0 -41 -82 -8 c-128 -11 -187 -43
-306 -167 -40 -42 -57 -65 -99 -133 -25 -41 -112 -222 -136 -285 -21 -54 -68
-195 -107 -325 -25 -82 -84 -343 -120 -525 l-11 -56 -67 3 c-97 5 -291 41
-407 75 -148 45 -172 46 -217 9 -45 -38 -73 -106 -64 -155 18 -97 342 -274
634 -347 61 -15 58 -5 37 -164 -23 -175 -53 -490 -71 -750 -9 -132 -18 -246
-20 -252 -2 -9 -24 -13 -62 -13 -69 0 -107 -26 -117 -81 -3 -19 -5 -141 -3
-271 l3 -238 26 -25 c19 -20 40 -28 82 -32 l57 -6 0 -298 0 -299 29 -32 29
-33 214 -5 213 -5 5 -135 5 -135 260 0 259 0 7 30 c4 17 12 52 18 79 15 63 43
101 99 137 l46 29 2123 0 c2072 0 2125 0 2161 -19 73 -38 132 -131 132 -210 0
-52 -2 -52 271 -49 l254 3 5 135 5 135 210 3 c204 2 211 3 240 26 l29 24 9
193 c13 303 -6 1037 -37 1419 -61 738 -138 1265 -249 1700 -16 63 -35 138 -42
165 -16 66 -94 290 -111 323 -8 15 -14 31 -14 35 0 5 -21 49 -46 100 -105 209
-215 336 -340 394 -44 20 -75 25 -179 30 l-125 6 0 28 c0 15 -5 40 -12 54
l-11 25 -2192 0 c-1691 0 -2194 -3 -2203 -12z"/>
</g>
</svg>
